<?xml version="1.0" encoding="UTF-8" standalone="no"?>
<!DOCTYPE svg PUBLIC "-//W3C//DTD SVG 1.1//EN" "http://www.w3.org/Graphics/SVG/1.1/DTD/svg11.dtd">
<svg width="100%" height="100%" viewBox="0 0 512 512" version="1.1" xmlns="http://www.w3.org/2000/svg" xmlns:xlink="http://www.w3.org/1999/xlink" xml:space="preserve" xmlns:serif="http://www.serif.com/" style="fill-rule:evenodd;clip-rule:evenodd;stroke-linejoin:round;stroke-miterlimit:2;">
    <g transform="matrix(0.849293,0,0,0.849293,38.581,38.5811)">
        <path d="M363.386,65L374,65C384.752,65 393.5,56.252 393.5,45.5L393.5,19.5C393.5,8.748 384.752,0 374,0L223.309,0C219.167,0 215.809,3.358 215.809,7.5C215.809,11.642 219.167,15 223.309,15L374,15C376.481,15 378.5,17.019 378.5,19.5L378.5,45.5C378.5,47.981 376.481,50 374,50L138,50C135.519,50 133.5,47.981 133.5,45.5L133.5,19.5C133.5,17.019 135.519,15 138,15L191.635,15C195.777,15 199.135,11.642 199.135,7.5C199.135,3.358 195.777,0 191.635,0L138,0C127.248,0 118.5,8.748 118.5,19.5L118.5,45.5C118.5,56.252 127.248,65 138,65L153.594,65C152.997,65.621 152.422,66.268 151.892,66.963C148.247,71.739 146.679,77.65 147.477,83.606C148.67,92.502 155.047,99.635 163.29,102.136C163.865,102.366 164.465,102.584 165.164,102.799L235.894,123.814L166.778,133.103C154.483,134.755 145.823,146.103 147.475,158.4C148.275,164.357 151.348,169.645 156.126,173.29C158.329,174.971 160.778,176.192 163.356,176.961C163.991,177.208 164.595,177.422 165.163,177.589L235.895,198.604L166.778,207.893C154.483,209.545 145.823,220.893 147.475,233.19C148.682,242.167 155.061,249.189 163.199,251.691C163.894,251.966 164.547,252.198 165.163,252.379L235.886,273.396L166.778,282.684C154.483,284.336 145.823,295.684 147.475,307.981C148.275,313.938 151.348,319.226 156.126,322.871C158.353,324.57 160.831,325.8 163.44,326.567C164.039,326.803 164.628,327.016 165.164,327.17L235.888,348.187L166.779,357.475C154.484,359.127 145.824,370.475 147.476,382.772C148.681,391.736 155.045,398.75 163.166,401.262C163.791,401.516 164.438,401.751 165.164,401.97L235.88,422.98L166.781,432.268C158.286,433.41 151.394,439.291 148.615,447.001L138,447.001C127.248,447.001 118.5,455.749 118.5,466.501L118.5,492.501C118.5,503.253 127.248,512.001 138,512.001L320.053,512.001C324.196,512.001 327.553,508.643 327.553,504.501C327.553,500.359 324.196,497.001 320.053,497.001L138,497.001C135.519,497.001 133.5,494.982 133.5,492.501L133.5,466.501C133.5,464.02 135.519,462.001 138,462.001L374,462.001C376.481,462.001 378.5,464.02 378.5,466.501L378.5,492.501C378.5,494.982 376.481,497.001 374,497.001L352.611,497.001C348.468,497.001 345.111,500.359 345.111,504.501C345.111,508.643 348.468,512.001 352.611,512.001L374,512.001C384.752,512.001 393.5,503.253 393.5,492.501L393.5,466.501C393.5,455.749 384.752,447.001 374,447.001L358.406,447.001C359.003,446.38 359.578,445.733 360.108,445.038C363.754,440.262 365.321,434.351 364.523,428.395C363.296,419.249 356.592,411.964 348.012,409.663C346.977,409.172 345.906,408.731 344.775,408.392L276.567,388.125L345.221,378.898C351.178,378.098 356.466,375.025 360.112,370.247C363.758,365.469 365.324,359.558 364.524,353.601C363.275,344.309 356.489,337.097 347.942,334.84C346.928,334.364 345.881,333.933 344.775,333.602L276.566,313.335L345.221,304.108C351.178,303.308 356.466,300.235 360.112,295.457C363.758,290.679 365.324,284.768 364.524,278.811C363.275,269.519 356.49,262.309 347.943,260.051C346.928,259.574 345.881,259.144 344.775,258.812L276.565,238.545L302.841,235.014C306.946,234.462 309.827,230.687 309.276,226.582C308.724,222.476 304.946,219.597 300.843,220.148L170.775,237.629C166.678,238.182 162.893,235.294 162.342,231.195C161.791,227.096 164.678,223.313 168.777,222.762L272.739,208.79C272.755,208.787 272.771,208.786 272.787,208.784L341.226,199.586C345.334,199.031 349.107,201.922 349.658,206.02C349.926,208.006 349.403,209.977 348.188,211.569C346.972,213.162 345.209,214.186 343.224,214.453L332.569,215.885C328.465,216.436 325.584,220.212 326.134,224.317C326.687,228.423 330.469,231.302 334.567,230.752L345.222,229.32C351.179,228.52 356.467,225.447 360.113,220.669C363.759,215.891 365.325,209.98 364.525,204.023C363.276,194.729 356.486,187.513 347.935,185.259C346.923,184.784 345.879,184.355 344.776,184.025L276.565,163.757L345.222,154.53C351.179,153.73 356.467,150.657 360.113,145.879C363.759,141.101 365.325,135.19 364.525,129.233C363.276,119.939 356.486,112.725 347.936,110.47C346.926,109.996 345.882,109.567 344.776,109.235L276.561,88.966L345.219,79.737C353.715,78.591 360.607,72.71 363.386,65ZM169.771,447L341.213,423.956C341.545,423.912 341.881,423.891 342.24,423.891C345.971,423.891 349.16,426.684 349.656,430.388C349.923,432.374 349.399,434.345 348.184,435.937C346.969,437.528 345.207,438.552 343.22,438.818L282.339,447L169.771,447ZM308.401,413.231L272.142,418.105L204.04,397.872L240.305,392.998L308.401,413.231ZM348.188,361.147C346.972,362.74 345.209,363.764 343.224,364.031L240.089,377.892C240.066,377.895 240.042,377.899 240.019,377.901L170.775,387.207C166.678,387.76 162.893,384.872 162.342,380.773C161.791,376.674 164.678,372.891 168.777,372.34L341.226,349.163C341.564,349.118 341.899,349.096 342.23,349.096C345.925,349.096 349.153,351.836 349.658,355.597C349.925,357.584 349.402,359.555 348.188,361.147ZM308.401,338.441L272.148,343.313L204.056,323.079L240.304,318.207L308.401,338.441ZM348.188,286.356C346.972,287.949 345.209,288.973 343.224,289.24L240.085,303.102C240.066,303.104 240.047,303.107 240.028,303.11L170.775,312.417C169.839,312.541 168.908,312.485 168.017,312.271C167.918,312.24 167.817,312.22 167.717,312.193C166.828,311.939 165.983,311.524 165.226,310.946C163.633,309.731 162.609,307.968 162.342,305.983C161.791,301.884 164.678,298.101 168.777,297.55L341.226,274.373C341.564,274.328 341.899,274.306 342.23,274.306C345.925,274.306 349.153,277.046 349.658,280.807C349.925,282.793 349.402,284.764 348.188,286.356ZM308.4,263.651L272.147,268.523L204.056,248.289L240.303,243.417L308.4,263.651ZM342.229,65L170.788,88.044C170.455,88.088 170.119,88.109 169.76,88.109C169.071,88.109 168.402,88.013 167.764,87.834C167.75,87.83 167.737,87.827 167.723,87.824C164.923,87.024 162.747,84.619 162.344,81.613C162.078,79.627 162.6,77.655 163.816,76.063C165.03,74.471 166.792,73.448 168.779,73.182L229.661,65L342.229,65ZM308.399,188.86L272.159,193.731L204.059,173.498L240.302,168.627L308.399,188.86ZM348.188,136.775C346.972,138.368 345.209,139.392 343.224,139.659L170.775,162.836C168.788,163.101 166.818,162.58 165.226,161.365C163.633,160.15 162.609,158.387 162.342,156.402C161.791,152.303 164.678,148.52 168.777,147.969L272.73,133.998C272.75,133.995 272.771,133.993 272.792,133.99L341.227,124.792C341.565,124.747 341.9,124.725 342.231,124.725C342.719,124.725 343.197,124.776 343.663,124.867C343.672,124.869 343.682,124.871 343.691,124.873C346.745,125.484 349.222,127.971 349.659,131.226C349.925,133.212 349.402,135.183 348.188,136.775ZM308.398,114.07L272.158,118.941L204.058,98.708L240.3,93.836L308.398,114.07Z" style="fill:rgb(21,67,128);fill-rule:nonzero;"/>
    </g>
</svg>
